<svg xmlns="http://www.w3.org/2000/svg" width="16.648" height="18.943" viewBox="0 0 16.648 18.943">
  <g id="delete" transform="translate(-31)">
    <path id="Path_619" data-name="Path 619" d="M31.555,151.11H33.22v11.728a.555.555,0,0,0,.555.555h11.1a.555.555,0,0,0,.555-.555V151.11h1.665a.555.555,0,1,0,0-1.11H31.555a.555.555,0,1,0,0,1.11Zm4.995,10.063a.555.555,0,1,1-1.11,0V152.22a.555.555,0,0,1,1.11,0Zm3.33,0a.555.555,0,1,1-1.11,0V152.22a.555.555,0,0,1,1.11,0Zm3.33,0a.555.555,0,1,1-1.11,0V152.22a.555.555,0,0,1,1.11,0Z" transform="translate(0 -144.45)" fill="#ff4e4e"/>
    <path id="Path_620" data-name="Path 620" d="M75.429,2.775a.555.555,0,0,0-.555-.555H70.989V.555A.555.555,0,0,0,70.434,0h-4.44a.555.555,0,0,0-.555.555V2.22H61.555A.555.555,0,0,0,61,2.775V4.44H75.429ZM66.55,1.11h3.33V2.22H66.55Z" transform="translate(-28.89)" fill="#ff4e4e"/>
  </g>
</svg>
