<svg xmlns="http://www.w3.org/2000/svg" width="16.597" height="18.513" viewBox="0 0 16.597 18.513">
  <path id="file" d="M6.8,17.79a.723.723,0,0,1-.723.723H2.893A2.9,2.9,0,0,1,0,15.62V2.893A2.9,2.9,0,0,1,2.893,0h8.891a2.9,2.9,0,0,1,2.893,2.893V9.8a.723.723,0,1,1-1.446,0V2.893a1.448,1.448,0,0,0-1.446-1.446H2.893A1.448,1.448,0,0,0,1.446,2.893V15.62a1.448,1.448,0,0,0,1.446,1.446H6.074a.723.723,0,0,1,.723.723ZM11.06,4.339H3.612a.723.723,0,0,0,0,1.446H11.06a.723.723,0,0,0,0-1.446Zm.723,3.616a.723.723,0,0,0-.723-.723H3.612a.723.723,0,0,0,0,1.446H11.06A.723.723,0,0,0,11.783,7.955ZM3.612,10.124a.723.723,0,1,0,0,1.446h3.8a.723.723,0,0,0,0-1.446Zm12.853,5.3c-.025.036-.113.16-.167.228A10.176,10.176,0,0,1,14.7,17.3a4.959,4.959,0,0,1-3.094,1.217A4.959,4.959,0,0,1,8.513,17.3a10.173,10.173,0,0,1-1.6-1.647c-.054-.068-.141-.192-.167-.228a.723.723,0,0,1,0-.831c.025-.036.113-.16.167-.228a10.174,10.174,0,0,1,1.6-1.647A4.959,4.959,0,0,1,11.607,11.5,4.959,4.959,0,0,1,14.7,12.715a10.173,10.173,0,0,1,1.6,1.647c.054.068.141.192.167.228A.723.723,0,0,1,16.465,15.421Zm-1.508-.416c-1.15-1.368-2.276-2.061-3.35-2.061s-2.2.693-3.35,2.061c1.15,1.368,2.276,2.061,3.35,2.061S13.807,16.373,14.956,15.005Zm-3.314-1.374a1.374,1.374,0,1,0,1.374,1.374A1.374,1.374,0,0,0,11.643,13.631Zm0,0" fill="#444"/>
</svg>
