<svg id="pencil" xmlns="http://www.w3.org/2000/svg" width="20.021" height="20" viewBox="0 0 20.021 20">
  <path id="Path_621" data-name="Path 621" d="M12.363,82.473,1.348,93.489a.439.439,0,0,0-.114.2l-1.221,4.9a.434.434,0,0,0,.42.539.431.431,0,0,0,.1-.013l4.9-1.221a.433.433,0,0,0,.2-.114L16.656,86.766Zm0,0" transform="translate(0 -79.13)" fill="#fff"/>
  <path id="Path_622" data-name="Path 622" d="M340.123,2.087,338.9.861a2.22,2.22,0,0,0-3.066,0l-1.5,1.5,4.293,4.293,1.5-1.5a2.169,2.169,0,0,0,0-3.066Zm0,0" transform="translate(-320.737 -0.246)" fill="#fff"/>
</svg>
