<svg id="achievement" xmlns="http://www.w3.org/2000/svg" width="24.088" height="24.088" viewBox="0 0 24.088 24.088">
  <path id="Path_559" data-name="Path 559" d="M22.671,22.671V19.837H19.837V17H17.712V14.169H14.878a2.839,2.839,0,0,0-2.125-2.744V9.859a4.261,4.261,0,0,0,2.959-2.045L16.8,7.271A4.194,4.194,0,0,0,19.129,3.5V1.417H16.295V0h-8.5V1.417H4.959V3.5A4.194,4.194,0,0,0,7.29,7.271h0l1.086.543a4.261,4.261,0,0,0,2.959,2.045v1.566A2.839,2.839,0,0,0,9.21,14.169H6.376V17H4.251v2.834H1.417v2.834H0v1.417H24.088V22.671ZM17.712,2.834V3.5a2.783,2.783,0,0,1-1.417,2.435v-3.1Zm-9.919,3.1A2.783,2.783,0,0,1,6.376,3.5V2.834H7.793ZM9.21,5.668V1.417h5.668V5.668a2.834,2.834,0,1,1-5.668,0Zm2.834,7.085a1.419,1.419,0,0,1,1.417,1.417H10.627A1.419,1.419,0,0,1,12.044,12.752ZM7.793,15.586h8.5V17h-8.5ZM5.668,18.42H18.42v1.417H5.668ZM2.834,22.671V21.254h18.42v1.417Z" fill="#444"/>
  <path id="Path_560" data-name="Path 560" d="M225,60h2.834v1.417H225Z" transform="translate(-214.373 -57.166)" fill="#444"/>
</svg>
