<svg xmlns="http://www.w3.org/2000/svg" width="15.936" height="22.171" viewBox="0 0 15.936 22.171">
  <g id="book_1_" data-name="book (1)" transform="translate(-72)">
    <path id="Path_546" data-name="Path 546" d="M72.693,19.746A.693.693,0,0,1,72,19.053V2.858A2.861,2.861,0,0,1,74.858,0H87.243a.693.693,0,0,1,.693.693V16.628a.693.693,0,1,1-1.386,0V1.386H74.858a1.474,1.474,0,0,0-1.472,1.472v16.2A.693.693,0,0,1,72.693,19.746Z" fill="#444"/>
    <path id="Path_547" data-name="Path 547" d="M87.243,374.236H75.118a3.118,3.118,0,1,1,0-6.236H87.243a.693.693,0,0,1,0,1.386H75.118a1.732,1.732,0,1,0,0,3.464H87.243a.693.693,0,0,1,0,1.386Z" transform="translate(0 -352.065)" fill="#444"/>
    <path id="Path_548" data-name="Path 548" d="M140.818,425.386H128.693a.693.693,0,1,1,0-1.386h12.125a.693.693,0,1,1,0,1.386Z" transform="translate(-53.575 -405.64)" fill="#444"/>
    <path id="Path_549" data-name="Path 549" d="M144.693,17.321a.693.693,0,0,1-.693-.693V.693a.693.693,0,1,1,1.386,0V16.628A.693.693,0,0,1,144.693,17.321Z" transform="translate(-68.882)" fill="#444"/>
  </g>
</svg>
