<svg xmlns="http://www.w3.org/2000/svg" width="24.088" height="24.143" viewBox="0 0 24.088 24.143">
  <path id="camping-tent" d="M24.671,19.648a.707.707,0,0,0-1.415,0v1.013L13.438,2.653l.916-1.593A.707.707,0,1,0,13.127.355l-.5.87-.5-.87A.707.707,0,1,0,10.9,1.06l.916,1.593L2,20.617v-.969a.707.707,0,1,0-1.415,0v3.737h0a.707.707,0,0,0,.705.707l22.673.05h0a.707.707,0,0,0,.705-.757h0ZM8.348,22.694l3.572-7.309V22.7Zm4.987.011V15.391L16.9,22.713ZM11.92,5.413v6.75L6.775,22.69l-4.293-.009Zm6.56,17.3L13.334,12.163V5.419l9.437,17.307Z" transform="translate(-0.583)" fill="#444"/>
</svg>
