<svg xmlns="http://www.w3.org/2000/svg" width="22.171" height="22.171" viewBox="0 0 22.171 22.171">
  <g id="circus" transform="translate(-0.001)">
    <path id="Path_566" data-name="Path 566" d="M21.1,18.52,20.405,7.64,12.443,4.356,15.5,3.135V.168H10.451V4.059L1.767,7.64,1.075,18.52A2.08,2.08,0,0,0,0,20.339v1.992H22.172V20.339A2.08,2.08,0,0,0,21.1,18.52ZM2.8,11.829a2.325,2.325,0,0,0,1.28.383h.1a2.332,2.332,0,0,0,1.689-.724,2.332,2.332,0,0,0,1.689.724h.1a2.332,2.332,0,0,0,1.689-.724,2.341,2.341,0,0,0,1.052.635A7.752,7.752,0,0,1,8.137,16.14,6.666,6.666,0,0,1,4.27,18.261H2.393ZM19.13,8.734V9.873a1.041,1.041,0,0,1-1.039,1.039h-.1a1.041,1.041,0,0,1-1.039-1.039V8.734ZM15.652,9.873a1.041,1.041,0,0,1-1.039,1.039h-.1a1.041,1.041,0,0,1-1.039-1.039V8.734h2.178ZM5.671,7.435,11.086,5.2,16.5,7.435Zm5.465,3.477h-.1A1.041,1.041,0,0,1,10,9.873V8.734h2.178V9.873a1.041,1.041,0,0,1-1.039,1.039ZM8.7,9.873a1.041,1.041,0,0,1-1.039,1.039h-.1A1.041,1.041,0,0,1,6.52,9.873V8.734H8.7Zm-3.477,0a1.041,1.041,0,0,1-1.039,1.039h-.1A1.041,1.041,0,0,1,3.043,9.873V8.734H5.221Zm3.832,7.188a10.234,10.234,0,0,0,1.92-2.614c.055-.109.106-.218.155-.327.049.109.1.219.155.327a10.234,10.234,0,0,0,1.92,2.614,10.859,10.859,0,0,0,1.433,1.2H7.621a10.859,10.859,0,0,0,1.433-1.2Zm5.067-.921A7.735,7.735,0,0,1,11.854,12.1a2.342,2.342,0,0,0,.971-.611,2.331,2.331,0,0,0,1.689.724h.1a2.331,2.331,0,0,0,1.689-.724,2.331,2.331,0,0,0,1.689.724h.1a2.324,2.324,0,0,0,1.28-.383l.409,6.432H17.987A6.665,6.665,0,0,1,14.12,16.14ZM11.75,1.467H14.2v.789l-2.447.979Zm9.123,19.565H1.3v-.693a.78.78,0,0,1,.779-.779H20.093a.78.78,0,0,1,.779.779Zm0,0" transform="translate(0 -0.16)" fill="#444"/>
    <path id="Path_567" data-name="Path 567" d="M30.5,27.008h1.3v1.3H30.5Zm0,0" transform="translate(-29.182 -25.838)" fill="#444"/>
    <path id="Path_568" data-name="Path 568" d="M99.09,78h1.3v1.3h-1.3Zm0,0" transform="translate(-94.798 -74.622)" fill="#444"/>
    <path id="Path_569" data-name="Path 569" d="M167.484,0h1.3V1.3h-1.3Zm0,0" transform="translate(-160.231)" fill="#444"/>
    <path id="Path_570" data-name="Path 570" d="M401.668,27.008h1.3v1.3h-1.3Zm0,0" transform="translate(-384.274 -25.838)" fill="#444"/>
    <path id="Path_571" data-name="Path 571" d="M457.809,104.2h1.3v1.3h-1.3Zm0,0" transform="translate(-437.984 -99.687)" fill="#444"/>
  </g>
</svg>
