<svg xmlns="http://www.w3.org/2000/svg" width="24.088" height="16.937" viewBox="0 0 24.088 16.937">
  <g id="credit-card" transform="translate(0 -76)">
    <g id="Group_4971" data-name="Group 4971" transform="translate(0 76)">
      <g id="Group_4970" data-name="Group 4970">
        <path id="Path_540" data-name="Path 540" d="M21.265,76H2.823A2.826,2.826,0,0,0,0,78.823V90.114a2.826,2.826,0,0,0,2.823,2.823H21.265a2.826,2.826,0,0,0,2.823-2.823V78.823A2.826,2.826,0,0,0,21.265,76Zm1.411,14.114a1.413,1.413,0,0,1-1.411,1.411H2.823a1.413,1.413,0,0,1-1.411-1.411V78.823a1.413,1.413,0,0,1,1.411-1.411H21.265a1.413,1.413,0,0,1,1.411,1.411Z" transform="translate(0 -76)" fill="#444"/>
      </g>
    </g>
    <g id="Group_4973" data-name="Group 4973" transform="translate(2.823 78.823)">
      <g id="Group_4972" data-name="Group 4972">
        <path id="Path_541" data-name="Path 541" d="M60,136v5.646h6.351V136Zm4.94,4.234H61.411v-2.823H64.94Z" transform="translate(-60 -136)" fill="#444"/>
      </g>
    </g>
    <g id="Group_4975" data-name="Group 4975" transform="translate(16.058 85.833)">
      <g id="Group_4974" data-name="Group 4974">
        <rect id="Rectangle_3880" data-name="Rectangle 3880" width="5.207" height="1.411" fill="#444"/>
      </g>
    </g>
    <g id="Group_4977" data-name="Group 4977" transform="translate(18.78 78.823)">
      <g id="Group_4976" data-name="Group 4976">
        <rect id="Rectangle_3881" data-name="Rectangle 3881" width="2.486" height="1.411" fill="#444"/>
      </g>
    </g>
    <g id="Group_4979" data-name="Group 4979" transform="translate(9.441 85.833)">
      <g id="Group_4978" data-name="Group 4978">
        <rect id="Rectangle_3882" data-name="Rectangle 3882" width="5.207" height="1.411" fill="#444"/>
      </g>
    </g>
    <g id="Group_4981" data-name="Group 4981" transform="translate(2.823 85.833)">
      <g id="Group_4980" data-name="Group 4980">
        <rect id="Rectangle_3883" data-name="Rectangle 3883" width="5.207" height="1.411" fill="#444"/>
      </g>
    </g>
  </g>
</svg>
