<svg xmlns="http://www.w3.org/2000/svg" width="24.088" height="21.171" viewBox="0 0 24.088 21.171">
  <g id="dinner" transform="translate(0 -31)">
    <g id="Group_4986" data-name="Group 4986" transform="translate(0 31)">
      <path id="Path_545" data-name="Path 545" d="M23.382,47.937h-.706v-.706a10.615,10.615,0,0,0-8.469-10.365c1.087-.948,2.053-1.9,2.053-3.26A2.508,2.508,0,0,0,13.8,31a2.283,2.283,0,0,0-1.751.806A2.283,2.283,0,0,0,10.3,31,2.524,2.524,0,0,0,7.81,33.606c0,1.281.84,2.183,2.082,3.258a10.615,10.615,0,0,0-8.48,10.367v.706H.706A.706.706,0,0,0,0,48.642a3.533,3.533,0,0,0,3.528,3.528H20.559a3.533,3.533,0,0,0,3.528-3.528A.706.706,0,0,0,23.382,47.937ZM9.221,33.606A1.117,1.117,0,0,1,10.3,32.411c.758,0,1.051.934,1.071,1a.7.7,0,0,0,1.359,0c.02-.068.313-1,1.071-1a1.1,1.1,0,0,1,1.045,1.195c0,.872-.872,1.614-2.342,2.855l-.222.188c-.08,0-.161,0-.241,0l-.223,0-.311-.262C10.006,35.121,9.221,34.423,9.221,33.606Zm-6.4,13.625a9.221,9.221,0,0,1,18.442,0v.706H2.823ZM20.559,50.76H3.528a2.125,2.125,0,0,1-2-1.416H22.556A2.125,2.125,0,0,1,20.559,50.76Z" transform="translate(0 -31)" fill="#444"/>
    </g>
  </g>
</svg>
