<svg xmlns="http://www.w3.org/2000/svg" width="24.088" height="24.088" viewBox="0 0 24.088 24.088">
  <path id="meeting-room" d="M21.265,5.646a2.823,2.823,0,1,0-2.823-2.823A2.826,2.826,0,0,0,21.265,5.646Zm0-3.764a.941.941,0,1,1-.941.941A.942.942,0,0,1,21.265,1.882ZM2.823,5.646A2.823,2.823,0,1,0,0,2.823,2.826,2.826,0,0,0,2.823,5.646Zm0-3.764a.941.941,0,1,1-.941.941A.942.942,0,0,1,2.823,1.882ZM21.28,6.539h-.014c-1.948,0-2.686,1.418-3.151,2.806-.158.472-.5,1.5-.727,2.181H16.278V9.362a2.826,2.826,0,0,0-2.823-2.823H10.633A2.826,2.826,0,0,0,7.81,9.362v2.164H6.7c-.225-.677-.569-1.709-.727-2.181-.466-1.388-1.2-2.806-3.151-2.806H2.808A2.825,2.825,0,0,0,0,9.362V14.49a2.827,2.827,0,0,0,1.882,2.661v.021c.024,0,.048,0,.072,0a2.8,2.8,0,0,0,.322.084.941.941,0,0,1,.547.853v5.975H4.7V18.113a2.812,2.812,0,0,0-.116-.8h1.1a.942.942,0,0,1,.941.941v5.834H8.515V18.254a2.826,2.826,0,0,0-2.823-2.823H2.823c-.024,0-.048,0-.072,0a2.8,2.8,0,0,0-.322-.084.941.941,0,0,1-.547-.853V9.362a.94.94,0,0,1,.933-.941c.425,0,.863,0,1.374,1.522.244.729.933,2.8.94,2.821l.214.644h13.4l.214-.644c.007-.021.7-2.092.94-2.821.511-1.525.949-1.523,1.374-1.522a.94.94,0,0,1,.933.941V14.49a.941.941,0,0,1-.547.853,2.8,2.8,0,0,0-.322.084c-.024,0-.048,0-.072,0H18.442a2.826,2.826,0,0,0-2.823,2.823v5.834H17.5V18.254a.942.942,0,0,1,.941-.941H19.5a2.812,2.812,0,0,0-.116.8v5.975h1.882V18.113a.941.941,0,0,1,.547-.853,2.8,2.8,0,0,0,.322-.084c.024,0,.048,0,.072,0v-.021a2.827,2.827,0,0,0,1.882-2.661V9.362A2.826,2.826,0,0,0,21.28,6.539ZM9.692,9.362a.942.942,0,0,1,.941-.941h2.823a.942.942,0,0,1,.941.941v2.164h-4.7Zm2.352-3.717A2.823,2.823,0,1,0,9.221,2.823a2.826,2.826,0,0,0,2.823,2.823Zm0-3.764a.941.941,0,1,1-.941.941.942.942,0,0,1,.941-.941Zm0,0" fill="#444"/>
</svg>
