<svg id="online-communication" xmlns="http://www.w3.org/2000/svg" width="24.088" height="24.088" viewBox="0 0 24.088 24.088">
  <path id="Path_532" data-name="Path 532" d="M65.234,304.117a2.117,2.117,0,1,0-2.117,2.117A2.119,2.119,0,0,0,65.234,304.117Zm-2.117.706a.706.706,0,1,1,.706-.706A.706.706,0,0,1,63.117,304.823Z" transform="translate(-58.13 -287.792)" fill="#444"/>
  <path id="Path_533" data-name="Path 533" d="M215.234,334.117a2.117,2.117,0,1,0-2.117,2.117A2.119,2.119,0,0,0,215.234,334.117Zm-2.117.706a.706.706,0,1,1,.706-.706A.707.707,0,0,1,213.117,334.823Z" transform="translate(-201.073 -316.381)" fill="#444"/>
  <path id="Path_534" data-name="Path 534" d="M365.234,304.117a2.117,2.117,0,1,0-2.117,2.117A2.119,2.119,0,0,0,365.234,304.117Zm-2.117.706a.706.706,0,1,1,.706-.706A.706.706,0,0,1,363.117,304.823Z" transform="translate(-344.016 -287.792)" fill="#444"/>
  <path id="Path_535" data-name="Path 535" d="M34.528,392A3.532,3.532,0,0,0,31,395.528a.706.706,0,0,0,.706.706h5.646a.706.706,0,0,0,.706-.706A3.532,3.532,0,0,0,34.528,392Zm-2,2.823a2.117,2.117,0,0,1,3.992,0Z" transform="translate(-29.542 -373.558)" fill="#444"/>
  <path id="Path_536" data-name="Path 536" d="M184.528,422A3.533,3.533,0,0,0,181,425.528a.706.706,0,0,0,.706.706h5.646a.706.706,0,0,0,.706-.706A3.533,3.533,0,0,0,184.528,422Zm-2,2.823a2.117,2.117,0,0,1,3.992,0Z" transform="translate(-172.485 -402.146)" fill="#444"/>
  <path id="Path_537" data-name="Path 537" d="M334.528,392A3.532,3.532,0,0,0,331,395.528a.706.706,0,0,0,.706.706h5.646a.706.706,0,0,0,.706-.706A3.532,3.532,0,0,0,334.528,392Zm-2,2.823a2.117,2.117,0,0,1,3.992,0Z" transform="translate(-315.428 -373.558)" fill="#444"/>
  <path id="Path_538" data-name="Path 538" d="M215.234,62.117a2.117,2.117,0,1,0-2.117,2.117A2.12,2.12,0,0,0,215.234,62.117Zm-2.117.706a.706.706,0,1,1,.706-.706A.707.707,0,0,1,213.117,62.823Z" transform="translate(-201.073 -57.177)" fill="#444"/>
  <path id="Path_539" data-name="Path 539" d="M23.382,1.411a.706.706,0,1,0,0-1.411H.706a.706.706,0,0,0,0,1.411h.706v9.974H.706a.706.706,0,0,0,0,1.411H23.382a.706.706,0,1,0,0-1.411h-.706V1.411ZM9.927,11.385v-.753a2.118,2.118,0,1,1,4.234,0v.753Zm11.338,0H15.572v-.753a3.529,3.529,0,1,0-7.057,0v.753H2.823V1.411H21.265Z" fill="#444"/>
</svg>
