<svg id="other" xmlns="http://www.w3.org/2000/svg" width="22.171" height="22.171" viewBox="0 0 22.171 22.171">
  <g id="Group_4990" data-name="Group 4990">
    <g id="Group_4989" data-name="Group 4989">
      <path id="Path_574" data-name="Path 574" d="M7.656,0H2.564A2.567,2.567,0,0,0,0,2.564V7.656a2.567,2.567,0,0,0,2.564,2.564H7.656a2.567,2.567,0,0,0,2.564-2.564V2.564A2.567,2.567,0,0,0,7.656,0Zm.832,7.656a.833.833,0,0,1-.832.832H2.564a.833.833,0,0,1-.832-.832V2.564a.833.833,0,0,1,.832-.832H7.656a.833.833,0,0,1,.832.832Z" fill="#444"/>
    </g>
  </g>
  <g id="Group_4992" data-name="Group 4992" transform="translate(11.952)">
    <g id="Group_4991" data-name="Group 4991">
      <path id="Path_575" data-name="Path 575" d="M283.621,0H278.6A2.6,2.6,0,0,0,276,2.6V7.621a2.6,2.6,0,0,0,2.6,2.6h5.023a2.6,2.6,0,0,0,2.6-2.6V2.6A2.6,2.6,0,0,0,283.621,0Zm.866,7.621a.867.867,0,0,1-.866.866H278.6a.867.867,0,0,1-.866-.866V2.6a.867.867,0,0,1,.866-.866h5.023a.867.867,0,0,1,.866.866Z" transform="translate(-276)" fill="#444"/>
    </g>
  </g>
  <g id="Group_4994" data-name="Group 4994" transform="translate(0 11.952)">
    <g id="Group_4993" data-name="Group 4993">
      <path id="Path_576" data-name="Path 576" d="M7.656,276H2.564A2.567,2.567,0,0,0,0,278.564v5.092a2.567,2.567,0,0,0,2.564,2.564H7.656a2.567,2.567,0,0,0,2.564-2.564v-5.092A2.567,2.567,0,0,0,7.656,276Zm.832,7.656a.833.833,0,0,1-.832.832H2.564a.833.833,0,0,1-.832-.832v-5.092a.833.833,0,0,1,.832-.832H7.656a.833.833,0,0,1,.832.832Z" transform="translate(0 -276)" fill="#444"/>
    </g>
  </g>
  <g id="Group_4996" data-name="Group 4996" transform="translate(11.952 11.952)">
    <g id="Group_4995" data-name="Group 4995">
      <path id="Path_577" data-name="Path 577" d="M283.621,276H278.6a2.6,2.6,0,0,0-2.6,2.6v5.023a2.6,2.6,0,0,0,2.6,2.6h5.023a2.6,2.6,0,0,0,2.6-2.6V278.6A2.6,2.6,0,0,0,283.621,276Zm.866,7.621a.867.867,0,0,1-.866.866H278.6a.867.867,0,0,1-.866-.866V278.6a.867.867,0,0,1,.866-.866h5.023a.867.867,0,0,1,.866.866Z" transform="translate(-276 -276)" fill="#444"/>
    </g>
  </g>
</svg>
