<svg xmlns="http://www.w3.org/2000/svg" width="24.088" height="24.598" viewBox="0 0 24.088 24.598">
  <g id="party" transform="translate(-5.302 0.001)">
    <path id="Path_550" data-name="Path 550" d="M12.648,142.8a.721.721,0,0,0-1.184.256l-6.114,16.3a.721.721,0,0,0,.928.928l16.3-6.114a.721.721,0,0,0,.257-1.184Zm-.228,1.81,2.961,2.961a13.041,13.041,0,0,0,2.6,6.787L14.9,155.517a11.61,11.61,0,0,1-3.169-9.076Zm-1.943,12.564a11.448,11.448,0,0,1-1.763-2.683l1.74-4.64a12.957,12.957,0,0,0,2.993,6.209Zm-2.435-.891a12.856,12.856,0,0,0,1,1.428l-1.79.671ZM19.4,153.83a11.578,11.578,0,0,1-2.273-4.508l3.9,3.9Z" transform="translate(0 -135.742)" fill="#444"/>
    <g id="Group_4987" data-name="Group 4987" transform="translate(21.834 10.025)">
      <path id="Path_551" data-name="Path 551" d="M349.656,212.132a.721.721,0,0,0,1.019,0c2.711-2.711,5.351-1.873,5.377-1.864a.721.721,0,1,0,.456-1.367c-.142-.047-3.518-1.122-6.852,2.212A.72.72,0,0,0,349.656,212.132Z" transform="translate(-349.445 -208.699)" fill="#444"/>
    </g>
    <path id="Path_552" data-name="Path 552" d="M232.984,17.946a.721.721,0,0,0,1.019,0c3.334-3.334,2.26-6.71,2.212-6.852a.721.721,0,1,0-1.367.456c.009.026.847,2.666-1.864,5.377A.72.72,0,0,0,232.984,17.946Z" transform="translate(-216.543 -10.093)" fill="#444"/>
    <path id="Path_553" data-name="Path 553" d="M286.017,9.382a.721.721,0,0,0,1.015,1.023c.372-.185,1.528.51,2.17-.132s-.04-1.767.129-2.164c.4-.169,1.529.506,2.164-.129s-.04-1.767.129-2.164c.4-.169,1.529.506,2.164-.129s-.04-1.767.129-2.164c.4-.168,1.529.506,2.164-.129s-.052-1.8.132-2.17A.721.721,0,0,0,295.188.211a2.075,2.075,0,0,0-.35,1.943,2.075,2.075,0,0,0-1.943.35,2.075,2.075,0,0,0-.35,1.943,2.075,2.075,0,0,0-1.943.35,2.075,2.075,0,0,0-.35,1.943,2.075,2.075,0,0,0-1.943.35,2.075,2.075,0,0,0-.35,1.943,2.075,2.075,0,0,0-1.943.35Z" transform="translate(-267.029 0)" fill="#444"/>
    <path id="Path_554" data-name="Path 554" d="M350.676,43.657a.721.721,0,1,0-1.019,0A.721.721,0,0,0,350.676,43.657Z" transform="translate(-327.611 -40.389)" fill="#444"/>
    <circle id="Ellipse_56" data-name="Ellipse 56" cx="0.721" cy="0.721" r="0.721" transform="translate(26.929 7.133)" fill="#444"/>
    <path id="Path_555" data-name="Path 555" d="M434.509,297.2a.721.721,0,1,0,1.019,0A.72.72,0,0,0,434.509,297.2Z" transform="translate(-408.387 -282.719)" fill="#444"/>
    <path id="Path_556" data-name="Path 556" d="M202.183,64.87a.721.721,0,1,0-1.019,0A.721.721,0,0,0,202.183,64.87Z" transform="translate(-186.252 -60.583)" fill="#444"/>
  </g>
</svg>
