<svg xmlns="http://www.w3.org/2000/svg" width="24.088" height="23.719" viewBox="0 0 24.088 23.719">
  <path id="Path_542" data-name="Path 542" d="M19.488,26.8l-.8-8.087,5.4-6.071L16.148,10.9l-4.1-7.015L7.94,10.9,0,12.64l5.4,6.071L4.6,26.8l6.732-2.95v2.336H9.894v1.424h4.293V26.185H12.756V23.849Zm-5.353-3.9a3.557,3.557,0,0,0,1.477-2.884V18.827h1.654l.565,5.69ZM2.682,13.512l6.172-1.349L12.044,6.71l3.19,5.453,6.172,1.349L17.943,17.4H15.611V16.217a3.56,3.56,0,1,0-7.12,0V17.4H6.145ZM6.258,24.518l.565-5.69H8.492v1.187a3.557,3.557,0,0,0,1.471,2.88Zm3.671-4.266h1.41V18.827H9.916V17.4H11.34V15.98H9.929a2.136,2.136,0,0,1,4.245,0h-1.41V17.4h1.424v1.424H12.763v1.424h1.41a2.14,2.14,0,0,1-1.8,1.874l-.654,0A2.14,2.14,0,0,1,9.929,20.251Z" transform="translate(0 -3.89)" fill="#444"/>
</svg>
