<svg xmlns="http://www.w3.org/2000/svg" width="24.088" height="22.582" viewBox="0 0 24.088 22.582">
  <g id="podium" transform="translate(0 -16.015)">
    <path id="Path_561" data-name="Path 561" d="M65.292,20.729l1.2,1.2-1.668,1.668,1,1,1.668-1.668,1.668,1.668,1-1-1.668-1.668,1.2-1.2,3.4,3.4,3.716-3.716-4.4-4.4-4.911,4.911-4.911-4.911-4.4,4.4,3.716,3.716Zm7.1-2.718,2.4,2.4-1.72,1.72-2.4-2.4Zm-9.822,0,1.72,1.72-2.4,2.4-1.72-1.72Z" transform="translate(-55.441)" fill="#444"/>
    <path id="Path_562" data-name="Path 562" d="M24.088,256.68v-5.72H16.529v-6.094H7.559v4.173H0v7.641H24.088ZM1.411,255.269v-4.818H7.559v4.818H1.411Zm13.706,0H8.97v-8.991h6.147v8.991Zm7.559,0H16.529v-2.9h6.147Z" transform="translate(0 -218.084)" fill="#444"/>
  </g>
</svg>
