<svg id="speaker" xmlns="http://www.w3.org/2000/svg" width="24.088" height="24.089" viewBox="0 0 24.088 24.089">
  <g id="Group_4964" data-name="Group 4964" transform="translate(0 13.048)">
    <path id="Path_526" data-name="Path 526" d="M21.328,20.026h-4.2a.753.753,0,1,1,0-1.506H20.8l1.46-4.015H1.827l1.46,4.015H6.955a.753.753,0,1,1,0,1.506H2.76a.753.753,0,0,1-.708-.5L.045,14.01A.753.753,0,0,1,.753,13H23.335a.754.754,0,0,1,.708,1.011l-2.007,5.52A.753.753,0,0,1,21.328,20.026Z" transform="translate(0 -13)" fill="#444"/>
  </g>
  <g id="Group_4965" data-name="Group 4965" transform="translate(6.022 16.059)">
    <path id="Path_527" data-name="Path 527" d="M16.289,24.029a.754.754,0,0,1-.745-.867l.87-5.657H7.63l.87,5.657a.752.752,0,1,1-1.487.229l-1-6.524A.752.752,0,0,1,6.753,16H17.291a.753.753,0,0,1,.744.868l-1,6.524a.751.751,0,0,1-.743.637Z" transform="translate(-6 -16)" fill="#444"/>
  </g>
  <g id="Group_4966" data-name="Group 4966" transform="translate(18.697 7.247)">
    <path id="Path_528" data-name="Path 528" d="M22.514,14.276a.753.753,0,0,1-.753-.753A5.786,5.786,0,0,0,18.99,8.616a.753.753,0,1,1,.784-1.286,7.3,7.3,0,0,1,3.492,6.193A.752.752,0,0,1,22.514,14.276Z" transform="translate(-18.629 -7.22)" fill="#444"/>
  </g>
  <g id="Group_4967" data-name="Group 4967" transform="translate(17.062 6.022)">
    <path id="Path_531" data-name="Path 531" d="M1.506,0A1.506,1.506,0,1,1,0,1.506,1.506,1.506,0,0,1,1.506,0Z" fill="#444"/>
  </g>
  <g id="Group_4968" data-name="Group 4968" transform="translate(8.029)">
    <path id="Path_529" data-name="Path 529" d="M12.015,8.029a4.015,4.015,0,1,1,4.015-4.015A4.019,4.019,0,0,1,12.015,8.029Zm0-6.524a2.509,2.509,0,1,0,2.509,2.509A2.512,2.512,0,0,0,12.015,1.506Z" transform="translate(-8)" fill="#444"/>
  </g>
  <g id="Group_4969" data-name="Group 4969" transform="translate(3.764 9.033)">
    <path id="Path_530" data-name="Path 530" d="M19.558,14.52a.753.753,0,0,1-.753-.753,3.266,3.266,0,0,0-3.262-3.262H8.517a3.266,3.266,0,0,0-3.262,3.262.753.753,0,1,1-1.506,0A4.773,4.773,0,0,1,8.517,9h7.026a4.773,4.773,0,0,1,4.767,4.767A.753.753,0,0,1,19.558,14.52Z" transform="translate(-3.75 -9)" fill="#444"/>
  </g>
</svg>
