<svg xmlns="http://www.w3.org/2000/svg" width="24.088" height="22.303" viewBox="0 0 24.088 22.303">
  <path id="speech" d="M12.046,30.259a2.562,2.562,0,1,1-2.562,2.562,2.562,2.562,0,0,1,2.562-2.562ZM17.433,37V35a2.23,2.23,0,1,0,0-1.58v-5.53h5.011a.706.706,0,0,0,.706-.706V19.672a.706.706,0,0,0-.706-.706H11.01a.706.706,0,0,0-.706.706v2.266H1.844a.706.706,0,0,0-.706.706v6.07a.706.706,0,0,0,.706.706H7.3V37.1l-.108.043a10.98,10.98,0,0,0-1.115-.266,9.621,9.621,0,0,0-5.633.8A.706.706,0,0,0,0,38.324v2.239a.706.706,0,0,0,1.412,0V38.8a12.051,12.051,0,0,1,1.39-.436,7.08,7.08,0,0,1,3.833.078v2.12a.706.706,0,0,0,1.412,0V38.311a9.783,9.783,0,0,1,8,0v2.249a.706.706,0,0,0,1.412,0V38.442a7.761,7.761,0,0,1,2.063-.305,9.079,9.079,0,0,1,3.157.664v1.763a.706.706,0,0,0,1.412,0l0-2.24a.7.7,0,0,0-.438-.651A9.4,9.4,0,0,0,17.433,37Zm2.086-3.607a.818.818,0,1,1-.579,1.4.818.818,0,0,1,.579-1.4ZM4.569,31.977a2.23,2.23,0,1,1-2.23,2.23,2.23,2.23,0,0,1,2.23-2.23Zm.579,1.651a.818.818,0,1,1-1.4.579.818.818,0,0,1,1.4-.579ZM8.709,29.42v7.175a10.72,10.72,0,0,1,7.312.21V27.886H14.869v.827a.706.706,0,0,1-.706.706H8.709Zm3.007-7.481V20.378H21.738v6.1h-6.87V22.644a.706.706,0,0,0-.706-.706Zm1.741,1.412v4.658H2.55V23.35Zm-.6,8.657a1.151,1.151,0,1,0,0,1.627A1.152,1.152,0,0,0,12.859,32.007Z" transform="translate(0 -18.966)" fill="#444" fill-rule="evenodd"/>
</svg>
