<svg xmlns="http://www.w3.org/2000/svg" width="24.088" height="24.086" viewBox="0 0 24.088 24.086">
  <g id="surface1" transform="translate(0 -0.5)">
    <path id="Path_572" data-name="Path 572" d="M1.2,24.379l1.564-1.564,1,1a.706.706,0,0,0,.973.024l9.981-9.03.523.523a.706.706,0,0,0,1,0l2-2a.707.707,0,0,0,.125-.169,6.356,6.356,0,0,0,3.34-1.356l.527.527a.706.706,0,1,0,1-1l-.527-.527a6.351,6.351,0,0,0-8.926-8.926l-.527-.527a.706.706,0,1,0-1,1l.527.527a6.356,6.356,0,0,0-1.356,3.34.705.705,0,0,0-.169.125l-2,2a.705.705,0,0,0,0,1l.523.523L.749,19.847a.706.706,0,0,0,.024.973l1,1L.207,23.381a.706.706,0,1,0,1,1ZM21.231,3.355a4.945,4.945,0,0,1,.464,6.451L14.78,2.891A4.945,4.945,0,0,1,21.231,3.355ZM20.7,10.8a4.949,4.949,0,0,1-3.011.981L12.8,6.9a4.947,4.947,0,0,1,.981-3.011ZM11.751,7.846l4.99,4.99-1,1-4.99-4.99Zm-5.365,12.6L4.142,18.2l6.636-7.335,2.943,2.943Zm-3.192-1.2,2.144,2.144L4.29,22.34,2.246,20.3Zm0,0" transform="translate(0 0)" fill="#444"/>
    <path id="Path_573" data-name="Path 573" d="M193.544,269.116l-1,1a.706.706,0,0,0,1,1l1-1a.706.706,0,1,0-1-1Zm0,0" transform="translate(-183.291 -255.781)" fill="#444"/>
  </g>
</svg>
