<svg xmlns="http://www.w3.org/2000/svg" width="24.088" height="24.088" viewBox="0 0 24.088 24.088">
  <path id="theater" d="M0,0V24.088H24.088V0ZM15.606,1.417a13.232,13.232,0,0,0,.289,2.125h-.309a2.839,2.839,0,0,1-2.744-2.125Zm-7.124,0h2.764A2.839,2.839,0,0,1,8.5,3.542H8.193A13.232,13.232,0,0,0,8.482,1.417Zm-7.065,0H3.5A10.024,10.024,0,0,1,1.417,6.681Zm0,7.378.162-.162a11.485,11.485,0,0,0,2.5-3.744A11.476,11.476,0,0,0,4.92,1.417H7.063a11.871,11.871,0,0,1-5.646,9.375Zm0,13.876V14.2a16.426,16.426,0,0,1,2.818,8.474ZM4.959,18.42q-.094-.322-.2-.642a17.68,17.68,0,0,0-2.633-5.026l-.379-.505.336-.2a13.246,13.246,0,0,0,4.7-4.823A13.21,13.21,0,0,0,7.8,4.959h.7a4.25,4.25,0,0,0,3.542-1.9,4.25,4.25,0,0,0,3.542,1.9h.7A13.2,13.2,0,0,0,17.3,7.223a13.247,13.247,0,0,0,4.7,4.823l.336.2-.379.505a17.679,17.679,0,0,0-2.633,5.026q-.106.319-.2.642H14.275l.769-5.539a4.67,4.67,0,0,0-1.088-3.7,2.362,2.362,0,1,0-3.907-.123,4.721,4.721,0,0,0-1.031,3.635l.8,5.732Zm6.17-8.45a2.357,2.357,0,0,0,1.685.055,3.26,3.26,0,0,1,.827,2.661l-.8,5.734h-1.6l-.823-5.927a3.3,3.3,0,0,1,.708-2.523ZM11.1,7.793a.945.945,0,1,1,.945.945.946.946,0,0,1-.945-.945ZM5.653,22.671a17.669,17.669,0,0,0-.343-2.834H18.778a17.67,17.67,0,0,0-.343,2.834Zm17.018,0H19.853A16.426,16.426,0,0,1,22.671,14.2Zm0-11.879a11.871,11.871,0,0,1-5.646-9.375h2.143a11.478,11.478,0,0,0,.839,3.472,11.483,11.483,0,0,0,2.5,3.744l.162.162Zm0-4.111a10.024,10.024,0,0,1-2.082-5.264h2.082Z" fill="#444"/>
</svg>
