<svg id="tour" xmlns="http://www.w3.org/2000/svg" width="21.171" height="21.171" viewBox="0 0 21.171 21.171">
  <path id="Path_563" data-name="Path 563" d="M305.034,68.453a.62.62,0,1,0-.62-.62A.627.627,0,0,0,305.034,68.453Z" transform="translate(-291.826 -64.434)" fill="#444"/>
  <g id="Group_4988" data-name="Group 4988" transform="translate(0)">
    <path id="Path_564" data-name="Path 564" d="M18.162,7.2H14.5c.252-.33.534-.717.8-1.121a5.682,5.682,0,0,0,1.185-2.8,3.283,3.283,0,1,0-6.566,0,6.373,6.373,0,0,0,1.443,3.176c.676.966,1.343,1.736,1.371,1.768a.62.62,0,0,0,.468.214h4.954a1.768,1.768,0,1,1,0,3.536H14.447a4.407,4.407,0,0,0-7.731,0H4.6a4.6,4.6,0,1,0,0,9.193h5.984a.62.62,0,0,0,.468-.214c.04-.046.979-1.131,1.934-2.494,1.35-1.928,2.006-3.357,2.006-4.368a4.413,4.413,0,0,0-.088-.877h3.261a3.009,3.009,0,1,0,0-6.017Zm-4.955-.352c-.964-1.207-2.041-2.836-2.041-3.566a2.042,2.042,0,1,1,4.085,0C15.25,3.907,14.443,5.305,13.207,6.849ZM4.6,19.93a3.356,3.356,0,0,1,0-6.712H6.261a4.409,4.409,0,0,0-.088.877c0,1.011.647,2.429,1.977,4.334.4.569.791,1.088,1.118,1.5H4.6Zm5.985-.345c-.352-.432-.885-1.108-1.415-1.867-1.526-2.186-1.754-3.209-1.754-3.624a3.168,3.168,0,1,1,6.335,0c0,1.211-1.784,3.8-3.167,5.491Z" transform="translate(0)" fill="#444"/>
    <path id="Path_565" data-name="Path 565" d="M241.5,329.878a.62.62,0,1,0,.62.62.627.627,0,0,0-.62-.62Z" transform="translate(-230.922 -316.238)" fill="#444"/>
  </g>
</svg>
