<svg xmlns="http://www.w3.org/2000/svg" width="18.063" height="23.714" viewBox="0 0 18.063 23.714">
  <g id="tournament" transform="translate(-61)">
    <path id="Path_557" data-name="Path 557" d="M78.369,22.324h-.232V20.24a.7.7,0,0,0-.695-.695H75.821V17.461a.7.7,0,0,0-.695-.695h-4.4V15.284h3.011a.695.695,0,1,0,0-1.389H72.579v-1.2a3.158,3.158,0,0,1,1.14-2.433A4.554,4.554,0,0,0,74.88,8.794,3.942,3.942,0,0,0,78.6,4.863V3.474a2.087,2.087,0,0,0-2.084-2.084H75.358V.695A.7.7,0,0,0,74.663,0H65.4a.7.7,0,0,0-.695.695v.695H63.547a2.087,2.087,0,0,0-2.084,2.084V4.863a3.942,3.942,0,0,0,3.72,3.931,4.555,4.555,0,0,0,1.162,1.466,3.158,3.158,0,0,1,1.14,2.433v1.2H66.326a.695.695,0,0,0,0,1.389h3.011v1.482h-4.4a.7.7,0,0,0-.695.695v2.084H62.621a.7.7,0,0,0-.695.695v2.084h-.232a.695.695,0,1,0,0,1.389h1.853a.695.695,0,1,0,0-1.389h-.232V20.935h3.242v1.389h-.232a.695.695,0,0,0,0,1.389h1.853a.695.695,0,0,0,0-1.389h-.232V20.24a.7.7,0,0,0-.695-.695H65.632V18.156h8.8v1.389H72.811a.7.7,0,0,0-.695.695v2.084h-.232a.695.695,0,0,0,0,1.389h1.853a.695.695,0,1,0,0-1.389h-.232V20.935h3.242v1.389h-.232a.695.695,0,1,0,0,1.389h1.853a.695.695,0,0,0,0-1.389ZM76.516,2.779a.7.7,0,0,1,.695.695V4.863a2.552,2.552,0,0,1-1.888,2.46,4.592,4.592,0,0,0,.035-.564V2.779ZM62.853,4.863V3.474a.7.7,0,0,1,.695-.695h1.158V6.76a4.591,4.591,0,0,0,.035.564A2.552,2.552,0,0,1,62.853,4.863Zm4.382,4.329a3.158,3.158,0,0,1-1.14-2.433V1.389h7.874V6.76a3.158,3.158,0,0,1-1.14,2.433,4.544,4.544,0,0,0-1.639,3.5v1.2H68.874v-1.2a4.544,4.544,0,0,0-1.639-3.5Z" fill="#444"/>
    <path id="Path_558" data-name="Path 558" d="M219.364,61.389v4.863a.695.695,0,1,0,1.389,0V60.695a.7.7,0,0,0-.695-.695h-1.188a.695.695,0,0,0,0,1.389Z" transform="translate(-149.896 -57.221)" fill="#444"/>
  </g>
</svg>
