<svg xmlns="http://www.w3.org/2000/svg" width="24.088" height="15.485" viewBox="0 0 24.088 15.485">
  <g id="video-camera" transform="translate(0 -85.333)">
    <g id="Group_4983" data-name="Group 4983" transform="translate(0 85.333)">
      <g id="Group_4982" data-name="Group 4982" transform="translate(0 0)">
        <path id="Path_543" data-name="Path 543" d="M23.68,87.182a.86.86,0,0,0-.837-.038l-5.637,2.819V87.914a2.581,2.581,0,0,0-2.581-2.581H2.581A2.581,2.581,0,0,0,0,87.914V98.237a2.581,2.581,0,0,0,2.581,2.581H14.625a2.581,2.581,0,0,0,2.581-2.581V96.188l5.637,2.823a.86.86,0,0,0,1.245-.774V87.914A.86.86,0,0,0,23.68,87.182Zm-8.2,11.055a.86.86,0,0,1-.86.86H2.581a.86.86,0,0,1-.86-.86V87.914a.86.86,0,0,1,.86-.86H14.625a.86.86,0,0,1,.86.86V98.237Zm6.882-1.392-5.162-2.581V91.887l5.162-2.581Z" transform="translate(0 -85.333)" fill="#444"/>
      </g>
    </g>
    <g id="Group_4985" data-name="Group 4985" transform="translate(5.162 89.634)">
      <g id="Group_4984" data-name="Group 4984">
        <path id="Path_544" data-name="Path 544" d="M105.841,170.667a3.441,3.441,0,1,0,3.441,3.441A3.441,3.441,0,0,0,105.841,170.667Zm0,5.162a1.721,1.721,0,1,1,1.721-1.721A1.721,1.721,0,0,1,105.841,175.829Z" transform="translate(-102.4 -170.667)" fill="#444"/>
      </g>
    </g>
  </g>
</svg>
