<svg xmlns="http://www.w3.org/2000/svg" width="16.953" height="21.17" viewBox="0 0 16.953 21.17">
  <g id="bride-dress" transform="translate(-51 0)">
    <path id="Path_613" data-name="Path 613" d="M66.567,12.458a12.4,12.4,0,0,0-3.479-4.545l1.117-3.724a.619.619,0,0,0,.026-.178c0-.88-.856-1.579-2.089-1.793L62.553.792A.62.62,0,1,0,61.361.448l-.5,1.725a3.829,3.829,0,0,0-1.387.393,3.83,3.83,0,0,0-1.387-.393l-.5-1.725A.62.62,0,1,0,56.4.792l.411,1.426c-1.233.213-2.089.913-2.089,1.793a.619.619,0,0,0,.026.178l1.117,3.724a12.4,12.4,0,0,0-3.479,4.545A15.631,15.631,0,0,0,51,18.944V19a.62.62,0,0,0,.388.575,21.471,21.471,0,0,0,8.089,1.6,21.471,21.471,0,0,0,8.089-1.6A.62.62,0,0,0,67.953,19v-.056a15.631,15.631,0,0,0-1.385-6.485ZM54.721,19v.354a20.806,20.806,0,0,1-2.476-.774,12.761,12.761,0,0,1,4.543-9.813h.221a14.643,14.643,0,0,0-1.627,4.226A26.88,26.88,0,0,0,54.721,19Zm4.135.92a19.9,19.9,0,0,1-2.894-.3V19a25.626,25.626,0,0,1,.627-5.723,12.68,12.68,0,0,1,1.674-4.167l.235-.343h.358ZM57.044,7.525,55.974,3.96a2.013,2.013,0,0,1,1.642-.57,2.519,2.519,0,0,1,1.48.4.62.62,0,0,0,.761,0,2.518,2.518,0,0,1,1.48-.4,2.014,2.014,0,0,1,1.642.57l-1.07,3.565Zm5.948,12.091a19.889,19.889,0,0,1-2.894.3V8.765h.358l.235.343c1.419,2.074,2.3,5.864,2.3,9.89Zm1.24-.263V19c0-4.112-.85-7.891-2.287-10.234h.22a12.761,12.761,0,0,1,4.543,9.813A20.814,20.814,0,0,1,64.231,19.353Z" transform="translate(0 0)" fill="#444"/>
  </g>
</svg>
