<svg xmlns="http://www.w3.org/2000/svg" width="19.206" height="24.087" viewBox="0 0 19.206 24.087">
  <path id="burrito" d="M71.065,4.8a3.946,3.946,0,0,0-5.946-3.308,5.347,5.347,0,0,0-7.363-.043,3.934,3.934,0,0,0-5.689,2.3,2.953,2.953,0,0,0-.2,1.145c.83,5.673,1.666,11.362,2.374,16.178a3.507,3.507,0,0,0,3.492,3.017h7.452a3.506,3.506,0,0,0,3.493-3.018c.558-3.843,2.378-16.112,2.386-16.271ZM55.814,2.343a2.5,2.5,0,0,1,1.592.574.706.706,0,0,0,1-.094,3.923,3.923,0,0,1,6.069.051.706.706,0,0,0,1.018.09,2.5,2.5,0,0,1,4.1,1.454l-1.564.9a3.952,3.952,0,0,0-5.148-.339,5.2,5.2,0,0,0-6.572.294,21.579,21.579,0,0,0-2.869-1.2,2.5,2.5,0,0,1,2.375-1.733Zm5.752,6.708a20.8,20.8,0,0,0-3.918-3.036,3.778,3.778,0,0,1,5.719,2Zm3.046-1.758a5.2,5.2,0,0,0-.717-1.3,2.528,2.528,0,0,1,2.839.074ZM57.735,22.676a2.1,2.1,0,0,1-2.1-1.81c-.672-4.571-1.459-9.928-2.247-15.312A18.627,18.627,0,0,1,66.022,22.507a2.137,2.137,0,0,1-.836.169Zm9.574-2a19.473,19.473,0,0,0-4.748-10.573l6.885-3.975s-1.6,10.9-2.138,14.548Z" transform="translate(-51.858 0)" fill="#444"/>
</svg>
