<svg id="charity" xmlns="http://www.w3.org/2000/svg" width="24.088" height="24.088" viewBox="0 0 24.088 24.088">
  <path id="Path_599" data-name="Path 599" d="M21.864,80.752a2.226,2.226,0,0,0-2.224,2.224v5.769l-.431.445a2.262,2.262,0,0,0-.491-.716,2.289,2.289,0,0,0-3.222.018l-3.453,3.474L8.591,88.492a2.289,2.289,0,0,0-3.222-.018,2.262,2.262,0,0,0-.491.716l-.431-.445V82.976a2.224,2.224,0,1,0-4.448,0v7.037a4.026,4.026,0,0,0,.568,2.061l.011.018,4.182,6.146-.48,2.8H19.807l-.48-2.8,4.17-6.129.023-.036a4.026,4.026,0,0,0,.568-2.061V82.976A2.226,2.226,0,0,0,21.864,80.752ZM11.338,99.629H5.955l.294-1.714L1.77,91.334a2.614,2.614,0,0,1-.358-1.321V82.976a.812.812,0,0,1,1.625,0v6.339l4.748,4.917,0,0,.064.067,1.015-.981L6.306,90.666A.873.873,0,0,1,7.59,89.487l3.748,3.771Zm11.338-9.616a2.613,2.613,0,0,1-.358,1.321L17.84,97.915l.294,1.714H12.75V93.258L16.5,89.487a.873.873,0,0,1,1.284,1.18l-2.561,2.649,1.015.981.064-.067,0,0,4.748-4.917V82.976a.812.812,0,0,1,1.625,0Z" transform="translate(0 -76.953)" fill="#444"/>
  <path id="Path_600" data-name="Path 600" d="M144.585,9.489l.374.234.374-.234A16.3,16.3,0,0,0,149.2,6.356a4.608,4.608,0,0,0,1.241-2.924,3.43,3.43,0,0,0-5.482-2.75,3.43,3.43,0,0,0-5.482,2.75,4.608,4.608,0,0,0,1.241,2.924,16.3,16.3,0,0,0,3.867,3.133Zm-1.676-8.077a2.021,2.021,0,0,1,1.52.691l.531.606.531-.606a2.019,2.019,0,0,1,3.54,1.329c0,1.319-1.369,2.873-4.071,4.623-2.7-1.749-4.071-3.3-4.071-4.623a2.022,2.022,0,0,1,2.02-2.02Z" transform="translate(-132.915)" fill="#444"/>
</svg>
