<svg id="chip" xmlns="http://www.w3.org/2000/svg" width="22.171" height="22.171" viewBox="0 0 22.171 22.171">
  <path id="Path_594" data-name="Path 594" d="M200.547,196h-3.9a.65.65,0,0,0-.65.65v3.9a.65.65,0,0,0,.65.65h3.9a.65.65,0,0,0,.65-.65v-3.9A.65.65,0,0,0,200.547,196Zm-.65,3.9h-2.6v-2.6h2.6Z" transform="translate(-187.513 -187.513)" fill="#444"/>
  <path id="Path_595" data-name="Path 595" d="M21.521,13.034h-5.24v-1.3h3.941a.65.65,0,0,0,.65-.65V9.137h.65a.65.65,0,1,0,0-1.3h-1.3a.65.65,0,0,0-.65.65v1.949H16.282v-1.3h1.342a.65.65,0,1,0,0-1.3H16.282v-1.3a.65.65,0,0,0-.65-.65h-1.3V.65a.65.65,0,0,0-1.3,0v5.24h-1.3V1.949a.65.65,0,0,0-.65-.65H9.137V.65a.65.65,0,0,0-1.3,0v1.3a.65.65,0,0,0,.65.65h1.949V5.889h-1.3V4.547a.65.65,0,0,0-1.3,0V5.889h-1.3a.65.65,0,0,0-.65.65v1.3H.65a.65.65,0,0,0,0,1.3h5.24v1.3H1.949a.65.65,0,0,0-.65.65v1.949H.65a.65.65,0,1,0,0,1.3h1.3a.65.65,0,0,0,.65-.65V11.735H5.889v1.3H4.547a.65.65,0,1,0,0,1.3H5.889v1.3a.65.65,0,0,0,.65.65h1.3v5.24a.65.65,0,0,0,1.3,0v-5.24h1.3v3.941a.65.65,0,0,0,.65.65h1.949v.65a.65.65,0,0,0,1.3,0v-1.3a.65.65,0,0,0-.65-.65H11.735V16.282h1.3v1.342a.65.65,0,0,0,1.3,0V16.282h1.3a.65.65,0,0,0,.65-.65v-1.3h5.24a.65.65,0,0,0,0-1.3Zm-6.539,1.949H7.188V7.188h7.794Z" fill="#444"/>
</svg>
