<svg xmlns="http://www.w3.org/2000/svg" width="20.459" height="23.088" viewBox="0 0 20.459 23.088">
  <g id="community-manager" transform="translate(-29.145)">
    <path id="Path_585" data-name="Path 585" d="M215.058,183.029a2.029,2.029,0,1,0-2.029,2.029A2.032,2.032,0,0,0,215.058,183.029Zm-2.029.676a.676.676,0,1,1,.676-.676A.677.677,0,0,1,213.029,183.706Z" transform="translate(-173.655 -172.838)" fill="#444"/>
    <path id="Path_586" data-name="Path 586" d="M48.589,14.521a2.025,2.025,0,0,0-.422-.183V8.749a2.029,2.029,0,1,0-1.908-3.484L41.368,2.4a2.029,2.029,0,1,0-3.988,0L32.489,5.265a2.029,2.029,0,1,0-1.908,3.484v5.589a2.029,2.029,0,1,0,1.908,3.485l4.891,2.862a2.029,2.029,0,1,0,4,.05l5.047-2.785c.044.03.089.059.136.086a2.029,2.029,0,1,0,2.029-3.515Zm-2.333.215-1.305-.754a6.081,6.081,0,0,0,0-4.878l1.305-.754a2.028,2.028,0,0,0,.558.338V14.4A2.028,2.028,0,0,0,46.256,14.737Zm-6.883,1.542a4.706,4.706,0,0,1-2.029-.457V15.6a2.029,2.029,0,0,1,4.058,0v.219A4.706,4.706,0,0,1,39.374,16.279Zm3.313-1.356a3.382,3.382,0,0,0-6.627,0,4.735,4.735,0,1,1,6.627,0ZM45.58,7.18l-1.307.755a6.089,6.089,0,0,0-4.223-2.44V3.942a2.029,2.029,0,0,0,.638-.369l4.893,2.863a2.03,2.03,0,0,0,0,.744ZM38.7,5.494a6.089,6.089,0,0,0-4.223,2.44L33.168,7.18a2.029,2.029,0,0,0,0-.744l4.893-2.863a2.03,2.03,0,0,0,.638.369ZM32.491,8.351l1.305.754a6.081,6.081,0,0,0,0,4.878l-1.305.754a2.026,2.026,0,0,0-.558-.338V8.689a2.028,2.028,0,0,0,.558-.338Zm.676,7.557,1.307-.755a6.089,6.089,0,0,0,4.223,2.44v1.552a2.029,2.029,0,0,0-.638.369l-4.893-2.863A2.029,2.029,0,0,0,33.168,15.908Zm6.883,1.686a6.089,6.089,0,0,0,4.223-2.44l1.307.755a2.034,2.034,0,0,0,.048.936l-4.9,2.7a2.031,2.031,0,0,0-.677-.4Zm7.186-11.37a.676.676,0,1,1-.248.924A.677.677,0,0,1,47.237,6.223ZM39.374,1.353a.676.676,0,1,1-.676.676A.677.677,0,0,1,39.374,1.353ZM30.587,6.471a.676.676,0,1,1,.248.924A.677.677,0,0,1,30.587,6.471Zm.924,10.394a.676.676,0,1,1,.248-.924A.677.677,0,0,1,31.511,16.865Zm7.863,4.871a.676.676,0,1,1,.676-.676A.677.677,0,0,1,39.374,21.735Zm8.787-5.118a.676.676,0,1,1-.248-.924A.677.677,0,0,1,48.161,16.617Z" fill="#444"/>
  </g>
</svg>
