<svg id="Group_5018" data-name="Group 5018" xmlns="http://www.w3.org/2000/svg" width="23.893" height="24.089" viewBox="0 0 23.893 24.089">
  <path id="Path_584" data-name="Path 584" d="M25.6.265a1.086,1.086,0,0,0-.864-.254L9.55,2.18a1.085,1.085,0,0,0-.931,1.074V15.972a4.352,4.352,0,1,0,2.169,3.764V8.534L23.8,6.674V13.8a4.352,4.352,0,1,0,2.169,3.764V1.085A1.085,1.085,0,0,0,25.6.265ZM6.434,21.919a2.184,2.184,0,1,1,2.184-2.184A2.187,2.187,0,0,1,6.434,21.919ZM23.8,4.483,10.788,6.342V4.2L23.8,2.336ZM21.62,19.75A2.184,2.184,0,1,1,23.8,17.566,2.187,2.187,0,0,1,21.62,19.75Z" transform="translate(-2.081 0)" fill="#444"/>
</svg>
