<svg xmlns="http://www.w3.org/2000/svg" width="21.171" height="21.171" viewBox="0 0 21.171 21.171">
  <g id="house" transform="translate(1 0.991)">
    <g id="Group_5029" data-name="Group 5029" transform="translate(-1 -0.991)">
      <path id="Path_614" data-name="Path 614" d="M19.883,8.06,10.271-.678l-.092-.083A.882.882,0,0,0,9.973-.9l-.01,0a.883.883,0,0,0-.756,0L9.2-.9a.882.882,0,0,0-.206.14L8.9-.679-.712,8.06A.882.882,0,0,0-.771,9.306a.882.882,0,0,0,1.246.059L.764,9.1V19.3a.882.882,0,0,0,.882.882H17.525a.882.882,0,0,0,.882-.882V9.1l.289.262A.882.882,0,0,0,19.883,8.06ZM7.821,18.416V13.124a1.764,1.764,0,1,1,3.529,0v5.293Zm8.822,0H13.114V13.124a3.529,3.529,0,1,0-7.057,0v5.293H2.528V7.5L9.585,1.083,16.643,7.5Z" transform="translate(1 0.991)" fill="#444"/>
    </g>
  </g>
</svg>
