<svg xmlns="http://www.w3.org/2000/svg" width="14.198" height="24.088" viewBox="0 0 14.198 24.088">
  <g id="politics" transform="translate(-104.688)">
    <path id="Path_612" data-name="Path 612" d="M115.416,22.671l1.228-9.21h2.214V9.21h-.945V4.558l-1.525-.915-.729,1.215.837.5v1.7a5.962,5.962,0,0,0-2.507-1.494,2.819,2.819,0,0,0,.617-1.763V2.834a2.834,2.834,0,1,0-5.668,0V3.8a2.821,2.821,0,0,0,.655,1.81A6.379,6.379,0,0,0,107.279,7c-.079.074-.155.151-.229.228V5.36l.837-.5-.729-1.215-1.525.915V9.21h-.945v4.251H106.9l1.228,9.21h-3.442v1.417h14.2V22.671Zm.917-13.461h-3.852V6.641l.893.221A4.548,4.548,0,0,1,116.333,9.21Zm-5.977-6.376a1.417,1.417,0,1,1,2.834,0V3.8a1.419,1.419,0,0,1-1.173,1.4h-.488a1.419,1.419,0,0,1-1.173-1.4Zm.1,4,.609-.151V9.21h-3.733A4.987,4.987,0,0,1,110.455,6.832Zm-4.35,5.212V10.627H117.44v1.417Zm3.454,10.627-1.228-9.21h6.883l-1.228,9.21Z" fill="#444"/>
  </g>
</svg>
