<svg xmlns="http://www.w3.org/2000/svg" width="24.088" height="21.171" viewBox="0 0 24.088 21.171">
  <path id="portfolio" d="M23.387,2.823h-6.4V2.117A2.12,2.12,0,0,0,14.867,0H9.221A2.12,2.12,0,0,0,7.1,2.117v.706H.706A.708.708,0,0,0,0,3.528V19.054a2.12,2.12,0,0,0,2.117,2.117H21.971a2.12,2.12,0,0,0,2.117-2.117V3.541a.685.685,0,0,0-.7-.718ZM8.516,2.117a.707.707,0,0,1,.706-.706h5.646a.707.707,0,0,1,.706.706v.706H8.516ZM22.4,4.234l-2.192,6.574a.7.7,0,0,1-.669.483h-3.97v-.706a.706.706,0,0,0-.706-.706H9.221a.706.706,0,0,0-.706.706v.706H4.546a.7.7,0,0,1-.669-.483L1.685,4.234Zm-8.242,7.057V12.7H9.927V11.291Zm8.515,7.763a.707.707,0,0,1-.706.706H2.117a.707.707,0,0,1-.706-.706V7.877l1.126,3.378A2.114,2.114,0,0,0,4.546,12.7h3.97v.706a.706.706,0,0,0,.706.706h5.646a.706.706,0,0,0,.706-.706V12.7h3.97a2.114,2.114,0,0,0,2.008-1.448l1.126-3.378Zm0,0" fill="#444"/>
</svg>
