<svg id="school" xmlns="http://www.w3.org/2000/svg" width="23.171" height="23.171" viewBox="0 0 23.171 23.171">
  <path id="Path_578" data-name="Path 578" d="M210.172,232a2.172,2.172,0,1,0,2.172,2.172A2.175,2.175,0,0,0,210.172,232Zm0,2.9a.724.724,0,1,1,.724-.724A.725.725,0,0,1,210.172,234.9Z" transform="translate(-198.587 -221.501)" fill="#444"/>
  <path id="Path_579" data-name="Path 579" d="M22.447,21.723h-.362V15.206h.362a.724.724,0,0,0,.648-1.048L20.2,8.365a.724.724,0,0,0-.648-.4H14.565L12.31,5.842v-1.5h2.9a.724.724,0,0,0,.724-.724V.724A.724.724,0,0,0,15.206,0h-3.62a.724.724,0,0,0-.724.724V5.842L8.606,7.965H3.62a.724.724,0,0,0-.648.4l-2.9,5.793a.724.724,0,0,0,.648,1.048h.362v6.517H.724a.724.724,0,0,0,0,1.448H22.447a.724.724,0,0,0,0-1.448Zm-1.81,0h-3.62V15.206h3.62ZM19.1,9.413l2.172,4.345H17.016v-1.5l.228.214a.724.724,0,1,0,.993-1.055L16.1,9.413ZM14.482,2.9H12.31V1.448h2.172ZM4.068,9.413h3L4.934,11.42a.724.724,0,0,0,.993,1.055l.228-.214v1.5H1.9ZM2.534,15.206h3.62v6.517H2.534ZM10.5,21.723v-2.9h2.172v2.9Zm3.62,0V18.1a.724.724,0,0,0-.724-.724H9.775a.724.724,0,0,0-.724.724v3.62H7.6V10.9l3.983-3.748L15.568,10.9V21.723Z" fill="#444"/>
  <path id="Path_580" data-name="Path 580" d="M392.724,369.448h.724a.724.724,0,1,0,0-1.448h-.724a.724.724,0,1,0,0,1.448Z" transform="translate(-374.26 -351.346)" fill="#444"/>
  <path id="Path_581" data-name="Path 581" d="M393.448,424h-.724a.724.724,0,0,0,0,1.448h.724a.724.724,0,0,0,0-1.448Z" transform="translate(-374.26 -404.812)" fill="#444"/>
  <path id="Path_582" data-name="Path 582" d="M72.724,369.448H73.4a.724.724,0,1,0,0-1.448h-.679a.724.724,0,1,0,0,1.448Z" transform="translate(-68.742 -351.346)" fill="#444"/>
  <path id="Path_583" data-name="Path 583" d="M73.4,424h-.679a.724.724,0,1,0,0,1.448H73.4a.724.724,0,0,0,0-1.448Z" transform="translate(-68.742 -404.812)" fill="#444"/>
</svg>
