<svg xmlns="http://www.w3.org/2000/svg" width="20.561" height="23.303" viewBox="0 0 20.561 23.303">
  <g id="star-of-david" transform="translate(-30.124)">
    <path id="Path_601" data-name="Path 601" d="M47.593,11.651l3-5.14A.683.683,0,0,0,50,5.484H44l-3-5.146a.683.683,0,0,0-1.179,0l-3,5.146H30.807a.683.683,0,0,0-.59,1.027l3,5.14-3,5.14a.683.683,0,0,0,.59,1.027h6.006l3,5.146a.683.683,0,0,0,1.179,0l3-5.146H50a.683.683,0,0,0,.59-1.027Zm1.22-4.8L46.8,10.3,44.792,6.85Zm-2.8,4.8-2.8,4.8H37.6l-2.8-4.8,2.8-4.8h5.614ZM40.4,2.038l2.011,3.447H38.394ZM32,6.85h4.021L34.006,10.3Zm0,9.6,2.011-3.447,2.011,3.447ZM40.4,21.265l-2.011-3.447h4.021Zm4.388-4.812L46.8,13.006l2.011,3.447Z" transform="translate(0 0)" fill="#444"/>
  </g>
</svg>
