<svg xmlns="http://www.w3.org/2000/svg" width="24.088" height="21.254" viewBox="0 0 24.088 21.254">
  <g id="suitcase" transform="translate(0 -30)">
    <path id="Path_596" data-name="Path 596" d="M21.324,34.251h-.07V31.417H17v2.834H15.682l-.664-2.989A1.6,1.6,0,0,0,13.445,30h-2.8A1.6,1.6,0,0,0,9.07,31.262l-.664,2.989H7.085V31.417H2.834v2.834h-.07A2.767,2.767,0,0,0,0,37.015V48.49a2.767,2.767,0,0,0,2.764,2.764h18.56a2.767,2.767,0,0,0,2.764-2.764V37.015A2.767,2.767,0,0,0,21.324,34.251Zm-2.9,1.417V49.837H5.668V35.668Zm0-2.834h1.417v1.417H18.42ZM10.453,31.57a.194.194,0,0,1,.19-.153h2.8a.194.194,0,0,1,.19.153l.6,2.681H9.857Zm-6.2,1.264H5.668v1.417H4.251ZM1.417,48.49V37.015a1.348,1.348,0,0,1,1.347-1.347H4.251V49.837H2.764A1.348,1.348,0,0,1,1.417,48.49Zm21.254,0a1.348,1.348,0,0,1-1.347,1.347H19.837V35.668h1.487a1.348,1.348,0,0,1,1.347,1.347Z" fill="#444"/>
    <path id="Path_597" data-name="Path 597" d="M226.125,185.231l-1.064-4.116-5.487,1.418,1.064,4.116Zm-2.081-2.389.355,1.372-2.744.709-.355-1.372Z" transform="translate(-209.203 -143.978)" fill="#444"/>
    <path id="Path_598" data-name="Path 598" d="M152.362,324.723A2.362,2.362,0,1,0,150,322.362,2.364,2.364,0,0,0,152.362,324.723Zm0-3.306a.945.945,0,1,1-.945.945A.946.946,0,0,1,152.362,321.417Z" transform="translate(-142.915 -276.303)" fill="#444"/>
  </g>
</svg>
