<svg id="sun-umbrella" xmlns="http://www.w3.org/2000/svg" width="24.088" height="24.088" viewBox="0 0 24.088 24.088">
  <path id="Path_602" data-name="Path 602" d="M23.816,122.926c-4.035-3.143-8.779-1.3-13.455-.083l-2.107-7.864a2.608,2.608,0,0,1,1.218.318.707.707,0,0,0,.958-.246,2.6,2.6,0,0,1,3.506-.929.706.706,0,0,0,1-.808,7.593,7.593,0,0,0-8.618-5.548l-.335-1.25a.706.706,0,1,0-1.363.365l.335,1.25A7.593,7.593,0,0,0,.27,117.253a.706.706,0,0,0,1.285.179,2.6,2.6,0,0,1,3.5-.935.707.707,0,0,0,.936-.257,2.609,2.609,0,0,1,.9-.894l2.1,7.832c-2.7.607-5.409.845-7.989-.337a.706.706,0,0,0-.588,1.283c8.087,3.707,16.577-4.728,22.536-.085a.706.706,0,0,0,.867-1.113ZM13.083,112.4a4.014,4.014,0,0,0-2.845.791,8.885,8.885,0,0,0-2.578-4.122A6.2,6.2,0,0,1,13.083,112.4ZM1.418,115.528a6.2,6.2,0,0,1,3.037-5.6,8.884,8.884,0,0,0-.173,4.86A4.01,4.01,0,0,0,1.418,115.528Zm4.245-1.039a7.382,7.382,0,0,1,.424-4.878,7.376,7.376,0,0,1,2.807,4.011A4.01,4.01,0,0,0,5.663,114.489Z" transform="translate(0 -101.007)" fill="#444"/>
  <path id="Path_603" data-name="Path 603" d="M271,107.366h.75a.706.706,0,0,0,0-1.411H271a.706.706,0,0,0,0,1.411Z" transform="translate(-257.578 -100.97)" fill="#444"/>
  <path id="Path_604" data-name="Path 604" d="M343.024,75.293a2.371,2.371,0,1,0-2.371-2.371A2.374,2.374,0,0,0,343.024,75.293Zm0-3.331a.96.96,0,1,1-.96.96A.961.961,0,0,1,343.024,71.961Z" transform="translate(-324.627 -67.231)" fill="#444"/>
  <path id="Path_605" data-name="Path 605" d="M376.761,2.162a.706.706,0,0,0,.706-.706V.706a.706.706,0,1,0-1.411,0v.75A.706.706,0,0,0,376.761,2.162Z" transform="translate(-358.363)" fill="#444"/>
  <path id="Path_606" data-name="Path 606" d="M301.877,32.767a.706.706,0,0,0,1-1l-.531-.531a.706.706,0,1,0-1,1Z" transform="translate(-286.972 -29.572)" fill="#444"/>
  <path id="Path_607" data-name="Path 607" d="M301.877,169.8l-.531.531a.706.706,0,0,0,1,1l.531-.531a.706.706,0,1,0-1-1Z" transform="translate(-286.972 -161.616)" fill="#444"/>
  <path id="Path_608" data-name="Path 608" d="M376.055,196.663v.75a.706.706,0,1,0,1.411,0v-.75a.706.706,0,1,0-1.411,0Z" transform="translate(-358.363 -186.738)" fill="#444"/>
  <path id="Path_609" data-name="Path 609" d="M439.9,169.8a.706.706,0,0,0,0,1l.531.531a.706.706,0,0,0,1-1l-.531-.531A.705.705,0,0,0,439.9,169.8Z" transform="translate(-419.006 -161.616)" fill="#444"/>
  <path id="Path_610" data-name="Path 610" d="M466.051,106.66a.706.706,0,0,0,.706.706h.75a.706.706,0,0,0,0-1.411h-.75A.706.706,0,0,0,466.051,106.66Z" transform="translate(-444.125 -100.969)" fill="#444"/>
  <path id="Path_611" data-name="Path 611" d="M440.9,32.767l.531-.531a.706.706,0,1,0-1-1l-.531.531a.706.706,0,1,0,1,1Z" transform="translate(-419.006 -29.572)" fill="#444"/>
</svg>
