<svg xmlns="http://www.w3.org/2000/svg" width="24.778" height="19" viewBox="0 0 24.778 19">
  <g id="swimmer" transform="translate(0 -59.7)">
    <path id="Path_587" data-name="Path 587" d="M.926,74.516c9.417-2.677,12.859,2.733,23.312,0a.726.726,0,1,0-.367-1.4,21.391,21.391,0,0,1-5.442.736l-2.1-3.392a3.249,3.249,0,1,0-.417-.672l-2.88-4.641L17.3,63.913a2.148,2.148,0,0,0-1.191-4.127l-6.47,1.867a2.632,2.632,0,0,0-1.508,3.919l1.956,3.152c-1.41.875-5.881,3.648-5.928,3.68a21.487,21.487,0,0,0-3.632.716.726.726,0,0,0,.4,1.4Zm16.625-7.327a1.8,1.8,0,1,1,.078,2.549A1.8,1.8,0,0,1,17.551,67.188Zm-5.846,1.386L9.367,64.806a1.181,1.181,0,0,1,.676-1.758l6.47-1.867a.7.7,0,1,1,.386,1.337l-5.194,1.5a.726.726,0,0,0-.416,1.08l5.386,8.681c-3.387-.284-6.139-1.306-9.624-1.461l4.42-2.743a.726.726,0,0,0,.234-1Z" transform="translate(-0.002 0)" fill="#444"/>
    <path id="Path_588" data-name="Path 588" d="M23.869,390.708c-10,2.611-13.51-2.791-23.342,0a.726.726,0,0,0,.4,1.4c9.417-2.677,12.859,2.733,23.312,0a.726.726,0,1,0-.367-1.4Z" transform="translate(0 -314.205)" fill="#444"/>
  </g>
</svg>
