<svg xmlns="http://www.w3.org/2000/svg" width="24.572" height="24.322" viewBox="0 0 24.572 24.322">
  <path id="XMLID_552_" d="M11.654,13.358a.556.556,0,0,1-.786.786l-.456-.456A.556.556,0,0,1,11.2,12.9ZM30.57,5.437a.556.556,0,0,0,.786-.786L30.9,4.195a.556.556,0,1,0-.786.786Zm2.777,8.136c.184,1.041-.809,2.122-2.87,3.124a26.709,26.709,0,0,1-6.234,1.971c-.27.054-.844.158-.859.161v3.327h1.88a.556.556,0,0,1,0,1.112H20.391a.556.556,0,0,1,0-1.112h1.88v-3.15a26.225,26.225,0,0,1-6.2.231c-2.28-.237-3.582-.912-3.766-1.954-.14-.795.384-1.6,1.56-2.383a.556.556,0,0,1,.618.924c-.862.577-1.124,1.032-1.083,1.266.05.284.693.824,2.785,1.041a25.991,25.991,0,0,0,6.537-.319c.008,0,.346-.057.507-.086A26.694,26.694,0,0,0,29.99,15.7c1.892-.92,2.312-1.646,2.261-1.931s-.722-.839-2.852-1.048l.192,1.086A.556.556,0,1,1,28.5,14l-.6-3.431a7.963,7.963,0,0,1-.961.773,19.687,19.687,0,0,1-4.342,2.169c-1.885.69-4.351,1.3-5.836,1.043l.259,1.471a.556.556,0,0,1-1.095.193l-.473-2.685,0-.011v-.008l-.488-2.768,0-.01v-.008l-.963-5.463V5.257c-.13-.765.517-1.5,1.924-2.183a17.751,17.751,0,0,1,4.5-1.358A17.743,17.743,0,0,1,25.1,1.452c1.559.162,2.419.632,2.556,1.4v0l.567,3.218v.008l0,.011.489,2.773h0v0l.479,2.718C31.72,11.783,33.152,12.468,33.347,13.573Zm-16.568-8a16.991,16.991,0,0,0,4.264-.265A16.992,16.992,0,0,0,25.14,4.1c1.158-.543,1.416-.96,1.425-1.051-.04-.082-.424-.386-1.7-.5a17,17,0,0,0-4.264.265,17,17,0,0,0-4.1,1.209c-1.158.543-1.416.96-1.425,1.051C15.12,5.153,15.5,5.457,16.779,5.571Zm.969,5.1a17.269,17.269,0,0,0,3.967-1A18.7,18.7,0,0,0,25.762,7.67c1.17-.807,1.379-1.307,1.372-1.4l-.328-1.862a6.508,6.508,0,0,1-1.068.634,17.752,17.752,0,0,1-4.5,1.358,17.749,17.749,0,0,1-4.694.264,6.511,6.511,0,0,1-1.221-.231l.722,4.1C16.121,10.612,16.573,10.8,17.748,10.675Zm9.877-1.618L27.4,7.781a7.974,7.974,0,0,1-.961.773,19.69,19.69,0,0,1-4.342,2.17c-1.885.69-4.351,1.3-5.836,1.043l.273,1.549c.079.082.531.266,1.706.145a17.269,17.269,0,0,0,3.967-1,18.7,18.7,0,0,0,4.047-2.009C27.425,9.647,27.633,9.147,27.625,9.057Zm7.033-.613a.556.556,0,0,0-.786,0l-.456.456a.556.556,0,1,0,.786.786l.456-.456A.556.556,0,0,0,34.658,8.443ZM12.7,8.265a.556.556,0,0,0-.786,0l-.456.456a.556.556,0,0,0,.786.786l.456-.456A.556.556,0,0,0,12.7,8.265ZM28.2,24.6H17.454a.556.556,0,1,0,0,1.112H28.2a.556.556,0,0,0,0-1.112Z" transform="translate(-10.249 -1.392)" fill="#444"/>
</svg>
