<svg xmlns="http://www.w3.org/2000/svg" width="24.088" height="16.254" viewBox="0 0 24.088 16.254">
  <g id="yacht" transform="translate(0 -83.254)">
    <g id="Group_5031" data-name="Group 5031" transform="translate(6.788 94.213)">
      <g id="Group_5030" data-name="Group 5030" transform="translate(0 0)">
        <path id="Path_615" data-name="Path 615" d="M145.718,316.2h-.73a.706.706,0,1,0,0,1.411h.73a.706.706,0,0,0,0-1.411Z" transform="translate(-144.283 -316.195)" fill="#444"/>
      </g>
    </g>
    <g id="Group_5033" data-name="Group 5033" transform="translate(10.579 94.213)">
      <g id="Group_5032" data-name="Group 5032" transform="translate(0 0)">
        <path id="Path_616" data-name="Path 616" d="M226.306,316.2h-.73a.706.706,0,1,0,0,1.411h.73a.706.706,0,0,0,0-1.411Z" transform="translate(-224.871 -316.195)" fill="#444"/>
      </g>
    </g>
    <g id="Group_5035" data-name="Group 5035" transform="translate(14.371 94.213)">
      <g id="Group_5034" data-name="Group 5034" transform="translate(0 0)">
        <path id="Path_617" data-name="Path 617" d="M306.894,316.2h-.73a.706.706,0,0,0,0,1.411h.73a.706.706,0,1,0,0-1.411Z" transform="translate(-305.459 -316.195)" fill="#444"/>
      </g>
    </g>
    <g id="Group_5037" data-name="Group 5037" transform="translate(0 83.254)">
      <g id="Group_5036" data-name="Group 5036" transform="translate(0 0)">
        <path id="Path_618" data-name="Path 618" d="M23.382,98.1a3.025,3.025,0,0,1-2.059-.884l2.69-5.366a.706.706,0,0,0-.631-1.022H17.851l-3.107-4.479c-.011-.016-.024-.031-.036-.046v-.115a2.934,2.934,0,0,0-2.931-2.931H5.238a.706.706,0,0,0,0,1.411h.688v1.377H5.282a.706.706,0,0,0-.7.636l-.411,4.146H2.88a1.4,1.4,0,0,0-1.4,1.268l-.277,2.7h-.5a.706.706,0,0,0,0,1.411h.357L.933,97.46v.006a1.4,1.4,0,0,0,.08.612,2.6,2.6,0,0,1-.307.019.706.706,0,1,0,0,1.411,4.345,4.345,0,0,0,2.834-1.1,4.346,4.346,0,0,0,2.835,1.1,4.344,4.344,0,0,0,2.834-1.1,4.214,4.214,0,0,0,5.669,0,4.213,4.213,0,0,0,5.669,0,4.347,4.347,0,0,0,2.835,1.1.706.706,0,0,0,0-1.411ZM7.338,84.665h4.44a1.521,1.521,0,0,1,1.513,1.377H7.338ZM5.921,87.453H13.8l.454.655H5.856Zm-.2,2.067h9.4a.709.709,0,0,0,.1-.008l.911,1.313H5.587Zm14.005,7.739a3,3,0,0,1-2.009.838,3.041,3.041,0,0,1-2.095-.917,1.071,1.071,0,0,0-1.479,0,3.041,3.041,0,0,1-2.095.917,3.041,3.041,0,0,1-2.1-.917,1.072,1.072,0,0,0-1.48,0,3.039,3.039,0,0,1-2.095.917,3.041,3.041,0,0,1-2.1-.917,1.072,1.072,0,0,0-1.48,0,3.841,3.841,0,0,1-.458.374l.546-5.318H22.239Z" transform="translate(0 -83.254)" fill="#444"/>
      </g>
    </g>
  </g>
</svg>
