<svg xmlns="http://www.w3.org/2000/svg" width="19.553" height="19.553" viewBox="0 0 19.553 19.553">
  <g id="balloon" transform="translate(0 0)">
    <path id="Path_624" data-name="Path 624" d="M184.976,94.42l-.2,1.2a.573.573,0,0,0,.829.6l1.083-.562,1.083.562a.573.573,0,0,0,.829-.6l-.2-1.2.869-.856a.573.573,0,0,0-.317-.975l-1.207-.182-.546-1.091a.573.573,0,0,0-1.025,0l-.546,1.091-1.206.182a.573.573,0,0,0-.317.975Zm1.119-.924a.573.573,0,0,0,.427-.31l.166-.333.166.333a.573.573,0,0,0,.427.31l.368.055-.265.261a.573.573,0,0,0-.163.5l.061.367-.33-.171a.573.573,0,0,0-.528,0l-.33.171.061-.367a.573.573,0,0,0-.163-.5l-.265-.261Z" transform="translate(-176.912 -87.525)" fill="#444"/>
    <path id="Path_625" data-name="Path 625" d="M3.476,13.735c0,.017,0,.034,0,.052a1.6,1.6,0,0,0,.8,1.318c.289.217.344.281.344.4s-.055.184-.344.4a1.6,1.6,0,0,0-.8,1.318,1.651,1.651,0,0,0,.792,1.329c.278.218.353.3.353.427a.573.573,0,0,0,1.146,0,1.651,1.651,0,0,0-.792-1.329c-.278-.218-.353-.3-.353-.427s.055-.184.344-.4a1.483,1.483,0,0,0,0-2.635c-.289-.217-.344-.281-.344-.4a.286.286,0,0,1,0-.054A3.942,3.942,0,0,0,7.209,11.81a4.551,4.551,0,0,0,1.576.715,1.536,1.536,0,0,0-.727,1.261,1.6,1.6,0,0,0,.8,1.318c.289.217.344.281.344.4s-.055.184-.344.4a1.6,1.6,0,0,0-.8,1.318,1.651,1.651,0,0,0,.792,1.329c.278.218.353.3.353.427a.573.573,0,0,0,1.146,0,1.651,1.651,0,0,0-.792-1.329c-.278-.218-.353-.3-.353-.427s.055-.184.344-.4a1.483,1.483,0,0,0,0-2.635c-.289-.217-.344-.281-.344-.4s.055-.184.344-.4a1.976,1.976,0,0,0,.692-.77,4.477,4.477,0,0,0,2.1-.8,4.338,4.338,0,0,0,1.517,1.524,1.377,1.377,0,0,0-.074.452,1.6,1.6,0,0,0,.8,1.318c.289.217.344.281.344.4s-.055.184-.344.4a1.6,1.6,0,0,0-.8,1.318,1.651,1.651,0,0,0,.792,1.329c.278.218.353.3.353.427a.573.573,0,0,0,1.146,0,1.651,1.651,0,0,0-.792-1.329c-.278-.218-.353-.3-.353-.427s.055-.184.344-.4a1.483,1.483,0,0,0,0-2.635c-.289-.217-.344-.281-.344-.4a.284.284,0,0,1,0-.052,3.149,3.149,0,0,0,.569.052c2.232,0,4.048-2.313,4.048-5.156S17.737,3.475,15.5,3.475a3.2,3.2,0,0,0-1.059.18A5.214,5.214,0,0,0,9.776,0a5.214,5.214,0,0,0-4.67,3.655,3.2,3.2,0,0,0-1.059-.18C1.816,3.475,0,5.788,0,8.631c0,2.6,1.514,4.749,3.476,5.1ZM15.5,4.621c1.768,0,2.9,2.1,2.9,4.01,0,1.884-1.118,4.01-2.9,4.01a2.727,2.727,0,0,1-2.286-1.606,6.971,6.971,0,0,0,1.713-4.7,7.712,7.712,0,0,0-.163-1.583,2.071,2.071,0,0,1,.735-.136ZM9.776,1.146c2.367,0,4.01,2.572,4.01,5.194,0,3.1-2.015,5.156-4.01,5.156-2.451,0-4.01-2.67-4.01-5.156,0-2.574,1.61-5.194,4.01-5.194ZM4.048,4.621a2.071,2.071,0,0,1,.735.136,7.711,7.711,0,0,0-.163,1.583,6.971,6.971,0,0,0,1.713,4.7,2.727,2.727,0,0,1-2.286,1.606c-1.764,0-2.9-2.094-2.9-4.01s1.129-4.01,2.9-4.01Z" fill="#444"/>
  </g>
</svg>
