<svg xmlns="http://www.w3.org/2000/svg" width="19.552" height="19.569" viewBox="0 0 19.552 19.569">
  <g id="home" transform="translate(-0.208 0)">
    <g id="Group_5098" data-name="Group 5098" transform="translate(0.208 0)">
      <path id="Path_623" data-name="Path 623" d="M19.564,9.29l-1.4-1.4L10.478.2A.7.7,0,0,0,9.49.2L1.8,7.892.4,9.29a.7.7,0,0,0,.988.988l.2-.205v8.8a.7.7,0,0,0,.7.7H17.672a.7.7,0,0,0,.7-.7v-8.8l.2.2a.7.7,0,0,0,.988-.988ZM12.08,18.171H7.887V12.579H12.08Zm4.892,0H13.478v-6.29a.7.7,0,0,0-.7-.7H7.188a.7.7,0,0,0-.7.7v6.29H2.994v-9.5L9.983,1.686l6.989,6.989Z" transform="translate(-0.208 0)" fill="#444"/>
    </g>
  </g>
</svg>
