<svg xmlns="http://www.w3.org/2000/svg" width="16.797" height="16.929" viewBox="0 0 16.797 16.929">
  <g id="settings" transform="translate(-2)">
    <g id="Group_5101" data-name="Group 5101" transform="translate(7.753 5.819)">
      <g id="Group_5100" data-name="Group 5100">
        <path id="Path_627" data-name="Path 627" d="M178.645,176a2.645,2.645,0,1,0,2.645,2.645A2.648,2.648,0,0,0,178.645,176Zm0,3.968a1.323,1.323,0,1,1,1.323-1.323A1.324,1.324,0,0,1,178.645,179.968Z" transform="translate(-176 -176)" fill="#444"/>
      </g>
    </g>
    <g id="Group_5103" data-name="Group 5103" transform="translate(2)">
      <g id="Group_5102" data-name="Group 5102" transform="translate(0)">
        <path id="Path_628" data-name="Path 628" d="M18.537,10.436,16.825,9.124a6.234,6.234,0,0,0,0-1.32l1.712-1.312a.661.661,0,0,0,.167-.861l-1.658-2.81a.661.661,0,0,0-.812-.279l-2.032.8a6.463,6.463,0,0,0-1.187-.673l-.3-2.1A.661.661,0,0,0,12.056,0H8.74a.661.661,0,0,0-.654.566l-.3,2.1a6.465,6.465,0,0,0-1.187.673l-2.032-.8a.661.661,0,0,0-.812.279L2.091,5.632a.661.661,0,0,0,.167.861L3.971,7.8a6.234,6.234,0,0,0,0,1.32L2.259,10.436a.661.661,0,0,0-.167.861l1.658,2.81a.661.661,0,0,0,.812.279l2.032-.8a6.464,6.464,0,0,0,1.187.673l.3,2.1a.661.661,0,0,0,.654.566h3.317a.661.661,0,0,0,.654-.566l.3-2.1a6.462,6.462,0,0,0,1.187-.673l2.032.8a.661.661,0,0,0,.812-.279L18.7,11.3A.661.661,0,0,0,18.537,10.436Zm-2.343,2.513-1.853-.73a.661.661,0,0,0-.659.1,5.152,5.152,0,0,1-1.492.844.661.661,0,0,0-.429.527l-.278,1.915H9.312l-.278-1.915a.661.661,0,0,0-.429-.527,5.153,5.153,0,0,1-1.492-.844.661.661,0,0,0-.659-.1l-1.853.73L3.528,11.13,5.081,9.94A.661.661,0,0,0,5.33,9.3a4.928,4.928,0,0,1,0-1.676.661.661,0,0,0-.249-.637L3.528,5.8,4.6,3.98l1.853.73a.661.661,0,0,0,.659-.1,5.153,5.153,0,0,1,1.492-.844.661.661,0,0,0,.429-.527l.278-1.915h2.172l.278,1.915a.661.661,0,0,0,.429.527,5.153,5.153,0,0,1,1.492.844.661.661,0,0,0,.659.1l1.853-.73L17.268,5.8l-1.553,1.19a.661.661,0,0,0-.249.637,4.928,4.928,0,0,1,0,1.676.661.661,0,0,0,.249.637l1.553,1.19Z" transform="translate(-2)" fill="#444"/>
      </g>
    </g>
  </g>
</svg>
