<svg xmlns="http://www.w3.org/2000/svg" width="16.797" height="16.797" viewBox="0 0 16.797 16.797">
  <g id="Solid" transform="translate(-24 -24)">
    <path id="Path_629" data-name="Path 629" d="M133.067,145.021l-3.276-3.276a.869.869,0,1,0-1.229,1.229l1.793,1.793h-9.487a.869.869,0,0,0,0,1.738h9.487l-1.793,1.793a.869.869,0,0,0,1.229,1.229l3.276-3.276A.869.869,0,0,0,133.067,145.021Z" transform="translate(-92.525 -113.237)" fill="#444"/>
    <path id="Path_630" data-name="Path 630" d="M34.136,37.322a.869.869,0,0,0-.869.869v.869h-7.53V25.738h7.53v.869a.869.869,0,0,0,1.738,0V25.448A1.448,1.448,0,0,0,33.557,24H25.448A1.448,1.448,0,0,0,24,25.448v13.9A1.448,1.448,0,0,0,25.448,40.8h8.109A1.448,1.448,0,0,0,35,39.349V38.19A.869.869,0,0,0,34.136,37.322Z" transform="translate(0)" fill="#444"/>
  </g>
</svg>
