<svg xmlns="http://www.w3.org/2000/svg" width="24" height="24" viewBox="0 0 24 24">
  <g id="Group_5117" data-name="Group 5117" transform="translate(-334 -115)">
    <rect id="Rectangle_3813" data-name="Rectangle 3813" width="24" height="24" rx="12" transform="translate(334 115)" fill="#fec009"/>
    <path id="check" d="M5.779,11.9a.77.77,0,0,1-1.09,0L.339,7.547a1.155,1.155,0,0,1,0-1.634l.545-.545a1.155,1.155,0,0,1,1.634,0L5.234,8.085l7.34-7.34a1.155,1.155,0,0,1,1.634,0l.545.545a1.155,1.155,0,0,1,0,1.634Zm0,0" transform="translate(338.664 120.886)" fill="#fff"/>
  </g>
</svg>
