<svg xmlns="http://www.w3.org/2000/svg" width="21.985" height="14.99" viewBox="0 0 21.985 14.99">
  <g id="visibility" transform="translate(0 -74.667)">
    <g id="Group_4931" data-name="Group 4931" transform="translate(0 74.667)">
      <g id="Group_4930" data-name="Group 4930">
        <path id="Path_83" data-name="Path 83" d="M173.665,170.667a3,3,0,1,0,3,3A3,3,0,0,0,173.665,170.667Z" transform="translate(-162.672 -166.17)" fill="#fff"/>
        <path id="Path_84" data-name="Path 84" d="M10.992,74.667A11.819,11.819,0,0,0,0,82.162a11.809,11.809,0,0,0,21.985,0A11.814,11.814,0,0,0,10.992,74.667Zm0,12.491a5,5,0,1,1,5-5A5,5,0,0,1,10.992,87.158Z" transform="translate(0 -74.667)" fill="#fff"/>
      </g>
    </g>
  </g>
</svg>
