<svg xmlns="http://www.w3.org/2000/svg" width="46.863" height="46.202" viewBox="0 0 46.863 46.202"><g transform="translate(-202 -260)"><path d="M-682.012,1196.612c0,1.339-1.773,2.506-2,3.781-.23,1.311,1.034,3.013.59,4.235-.454,1.244-2.52,1.735-3.174,2.866s-.057,3.176-.9,4.179-2.955.764-3.962,1.61-1.128,2.964-2.271,3.624-3.028-.292-4.272.16c-1.223.445-2.066,2.395-3.377,2.623-1.275.224-2.73-1.317-4.069-1.317s-2.794,1.542-4.07,1.317c-1.31-.229-2.153-2.178-3.377-2.623-1.244-.452-3.141.494-4.272-.16s-1.266-2.78-2.271-3.624-3.116-.6-3.961-1.61-.24-3.038-.9-4.179-2.72-1.622-3.173-2.866c-.445-1.222.819-2.925.589-4.235-.223-1.275-2-2.443-2-3.781s1.772-2.506,2-3.781c.23-1.311-1.034-3.012-.589-4.235.453-1.245,2.519-1.735,3.173-2.866s.057-3.176.9-4.18,2.955-.764,3.961-1.61,1.128-2.963,2.271-3.624,3.028.293,4.272-.16c1.223-.445,2.066-2.395,3.377-2.624,1.275-.224,2.73,1.317,4.07,1.317s2.793-1.54,4.069-1.317c1.311.229,2.154,2.179,3.377,2.624,1.243.453,3.141-.495,4.272.16s1.267,2.781,2.271,3.624,3.115.6,3.962,1.61.24,3.038.9,4.18,2.721,1.621,3.174,2.866c.444,1.223-.82,2.924-.59,4.235C-683.785,1194.106-682.012,1195.273-682.012,1196.612Z" transform="translate(930.875 -913.511)" fill="#fec009"/><g transform="translate(214.056 274.734)"><path d="M20.617,18.623a3.33,3.33,0,1,1-3.33-3.33A3.33,3.33,0,0,1,20.617,18.623Z" transform="translate(-6.168 -9.183)" fill="#fff"/><path d="M24.972,10.655H21.816a.94.94,0,0,1-.695-.313C19.476,8.5,18.856,7.875,18.185,7.875H13.233c-.678,0-1.344.625-2.994,2.473a.922.922,0,0,1-.689.307H9.312v-.463a.465.465,0,0,0-.463-.463H7.343a.465.465,0,0,0-.463.463v.463H6.446A1.878,1.878,0,0,0,4.5,12.433V22.625a2,2,0,0,0,1.94,1.928H24.972a1.856,1.856,0,0,0,1.766-1.928V12.433A1.726,1.726,0,0,0,24.972,10.655ZM15.851,22.26a4.951,4.951,0,1,1,4.714-4.714A4.956,4.956,0,0,1,15.851,22.26Zm5.328-8.247a.753.753,0,1,1,.753-.753A.751.751,0,0,1,21.179,14.014Z" transform="translate(-4.5 -7.875)" fill="#fff"/></g></g></svg>